<?xml version="1.0" encoding="UTF-8"?>
<!-- Generator: Adobe Illustrator 27.2.0, SVG Export Plug-In . SVG Version: 6.00 Build 0)  -->
<svg xmlns="http://www.w3.org/2000/svg" xmlns:xlink="http://www.w3.org/1999/xlink" version="1.1" id="Layer_1" x="0px" y="0px" viewBox="0 0 1125 294" style="enable-background:new 0 0 1125 294;" xml:space="preserve">
<style type="text/css">
	.st0{fill:#0081C3;}
	.st1{fill:#FFFFFF;}
</style>
<g>
	<path d="M402,106.8c-0.2,12.9-1.9,20.1-5.8,26.7c-6.3,10.4-16.6,15.5-31.2,15.5c-14,0-24.4-4.7-30.4-13.6   c-4.7-6.9-6.5-16.8-6.5-32.8V58.7c0-18.1,2.2-28.2,8-35.3c6.2-7.6,15.7-11.4,28.5-11.4c15.1,0,25.7,5.8,31.5,17.2   c3,5.6,4.1,11.8,4.3,22.8h-21.8c-1.1-15.9-4.1-20.5-13.4-20.5c-10.1,0-13.1,6.7-13.1,28.9v40.5c0,22,3.2,28.7,13.4,28.7   c10.1,0,14-6.3,14.4-22.8H402z"></path>
	<path d="M438,120.4l-5.8,26.5h-25.9l37.7-133.2h20l37.7,133.2h-25.9l-5.6-26.5H438z M454,46.3l-11.9,55h23.7L454,46.3z"></path>
	<path d="M512.2,13.7h24.1v133.2h-24.1V13.7z"></path>
	<path d="M553.1,55.7c0-31.7,10.8-44,38.4-44c27.8,0,38.6,12.3,38.6,44v49.2c0,31.7-10.8,44-38.6,44c-27.6,0-38.4-12.3-38.4-44V55.7   z M606.1,57.7c0-20.5-3.4-26.7-14.4-26.7c-11.2,0-14.6,6.2-14.6,26.7v45.1c0,20.5,3.4,26.7,14.6,26.7c11,0,14.4-6.2,14.4-26.7V57.7   z"></path>
	<path d="M696.6,33.5h-23.5V13.7h71.1v19.8h-23.5v113.4h-24.1V33.5z"></path>
	<path d="M756.9,13.7h64.2v19.8H781v36.4h33.8v19.8H781v37.5h41v19.8h-65.1V13.7z"></path>
	<path d="M860.8,146.9h-24.1V13.7h33.8c15.9,0,23.9,2.4,30,9c6.2,6.3,8.8,15.3,8.8,29.7c0,22.9-4.3,31.9-17.7,37.9l21.8,56.7h-26.5   L868.3,92h-7.5V146.9z M868.8,73.6c6.9,0,10.1-1.1,12.5-4.5c2.6-3.2,3.9-8.8,3.9-15.3c0-15.5-4.1-20.9-15.9-20.9h-9.3v40.7H868.8z"></path>
	<path d="M951.3,146.9h-24.1V13.7H961c15.9,0,23.9,2.4,30,9c6.2,6.3,8.8,15.3,8.8,29.7c0,22.9-4.3,31.9-17.7,37.9l21.8,56.7h-26.5   L958.8,92h-7.5V146.9z M959.3,73.6c6.9,0,10.1-1.1,12.5-4.5c2.6-3.2,3.9-8.8,3.9-15.3c0-15.5-4.1-20.9-15.9-20.9h-9.3v40.7H959.3z"></path>
	<path d="M1043.1,120.4l-5.8,26.5h-25.9l37.7-133.2h20l37.7,133.2h-25.9l-5.6-26.5H1043.1z M1059.1,46.3l-11.9,55h23.7L1059.1,46.3z   "></path>
</g>
<g>
	<path class="st0" d="M252.6,13.5h-52.9v97.7H109V190h90.7v93h52.9c18.8,0,34.1-15.2,34.1-34.1V47.6   C286.7,28.8,271.4,13.5,252.6,13.5z"></path>
	<path class="st0" d="M187.8,202H97.1V99.3h90.7V13.5H51.3c-18.8,0-34.1,15.2-34.1,34.1v201.3c0,18.8,15.3,34.1,34.1,34.1h136.5V202   z"></path>
</g>
<rect x="329.6" y="178" width="779.7" height="105"></rect>
<g>
	<path class="st1" d="M393.9,248l-2.5,11.7H380l16.6-58.6h8.8l16.6,58.6h-11.4L408,248H393.9z M401,215.4l-5.3,24.2h10.4L401,215.4z   "></path>
	<path class="st1" d="M462.2,242c0.1,7.2,1.9,10,6.2,10c4.4,0,6.3-2.5,6.3-8.7c0-2.7-0.5-4.6-1.6-5.8c-1.2-1.3-1.6-1.5-7.1-3.3   c-8.9-3-12.5-7.7-12.5-16.8c0-11.2,5.1-17.1,14.8-17.1c6.5,0,10.9,2.5,13.4,7.6c1.2,2.5,1.8,5.3,1.9,10h-9.7c-0.4-6.8-1.6-9-5.3-9   c-3.4,0-5,2.7-5,8.1c0,4.6,1.9,6.7,7.6,8.8c5.9,2.1,7.2,2.6,9.3,4.4c3,2.6,4.3,6.6,4.3,12.8c0,11.7-5.5,17.6-16.3,17.6   c-6.9,0-11.7-2.6-14.2-7.8c-1.3-2.5-1.8-5.4-1.9-10.8H462.2z"></path>
	<path class="st1" d="M528.6,242c0.1,7.2,1.9,10,6.2,10c4.4,0,6.3-2.5,6.3-8.7c0-2.7-0.5-4.6-1.6-5.8c-1.2-1.3-1.6-1.5-7.1-3.3   c-8.9-3-12.5-7.7-12.5-16.8c0-11.2,5.1-17.1,14.8-17.1c6.5,0,10.9,2.5,13.4,7.6c1.2,2.5,1.8,5.3,1.9,10h-9.7c-0.4-6.8-1.6-9-5.3-9   c-3.4,0-5,2.7-5,8.1c0,4.6,1.9,6.7,7.6,8.8c5.9,2.1,7.2,2.6,9.3,4.4c3,2.6,4.4,6.6,4.4,12.8c0,11.7-5.5,17.6-16.3,17.6   c-6.9,0-11.7-2.6-14.2-7.8c-1.3-2.5-1.8-5.4-1.9-10.8H528.6z"></path>
	<path class="st1" d="M586.3,219.5c0-14,4.8-19.4,16.9-19.4c12.2,0,17,5.4,17,19.4v21.7c0,14-4.8,19.4-17,19.4   c-12.1,0-16.9-5.4-16.9-19.4V219.5z M609.6,220.4c0-9-1.5-11.7-6.3-11.7c-4.9,0-6.4,2.7-6.4,11.7v19.9c0,9,1.5,11.7,6.4,11.7   c4.8,0,6.3-2.7,6.3-11.7V220.4z"></path>
	<path class="st1" d="M688.4,242c-0.1,5.7-0.8,8.9-2.5,11.7c-2.8,4.6-7.3,6.8-13.7,6.8c-6.2,0-10.8-2.1-13.4-6   c-2.1-3-2.9-7.4-2.9-14.4v-19.3c0-8,1-12.4,3.5-15.5c2.7-3.4,6.9-5,12.6-5c6.6,0,11.3,2.5,13.9,7.6c1.3,2.5,1.8,5.2,1.9,10h-9.6   c-0.5-7-1.8-9-5.9-9c-4.4,0-5.7,3-5.7,12.7v17.8c0,9.7,1.4,12.6,5.9,12.6c4.4,0,6.2-2.8,6.3-10H688.4z"></path>
	<path class="st1" d="M723.8,201h10.6v58.6h-10.6V201z"></path>
	<path class="st1" d="M782.1,248l-2.5,11.7h-11.4l16.6-58.6h8.8l16.6,58.6h-11.4l-2.5-11.7H782.1z M789.1,215.4l-5.3,24.2h10.4   L789.1,215.4z"></path>
	<path class="st1" d="M846.5,209.7h-10.3V201h31.3v8.7H857v49.9h-10.6V209.7z"></path>
	<path class="st1" d="M902,201h10.6v58.6H902V201z"></path>
	<path class="st1" d="M948.9,219.5c0-14,4.8-19.4,16.9-19.4c12.2,0,17,5.4,17,19.4v21.7c0,14-4.8,19.4-17,19.4   c-12.1,0-16.9-5.4-16.9-19.4V219.5z M972.3,220.4c0-9-1.5-11.7-6.3-11.7c-4.9,0-6.4,2.7-6.4,11.7v19.9c0,9,1.5,11.7,6.4,11.7   c4.8,0,6.3-2.7,6.3-11.7V220.4z"></path>
	<path class="st1" d="M1019.2,201h10.5l14.1,37.3V201h9.8v58.6h-9.9l-14.7-37.8v37.8h-9.8V201z"></path>
</g>
</svg>
